<svg preserveAspectRatio="none" overflow="visible" style="display: block;" width="20" height="20" viewBox="0 0 20 20" fill="none" xmlns="http://www.w3.org/2000/svg">
<g id="Icon Container" clip-path="url(#clip0_0_93)">
<path id="Vector" d="M14.3538 3.35467C12.7138 3.35467 11.4319 4.58985 10.2714 6.15887C8.67675 4.12843 7.34297 3.35467 5.74701 3.35467C2.49311 3.35467 -2.19345e-05 7.5893 -2.19345e-05 12.0715C-2.19345e-05 14.8763 1.35689 16.6453 3.6297 16.6453C5.26553 16.6453 6.44199 15.8741 8.53345 12.2182C8.53345 12.2182 9.40531 10.6785 10.0051 9.61793C10.2152 9.95732 10.4365 10.3229 10.6691 10.7149L11.6499 12.3647C13.5603 15.5618 14.6248 16.6453 16.5536 16.6453C18.7678 16.6453 20 14.852 20 11.989C20.0001 7.29606 17.4507 3.35467 14.3538 3.35467ZM6.93858 11.2283C5.24294 13.8864 4.65622 14.4822 3.71222 14.4822C2.74056 14.4822 2.16314 13.6292 2.16314 12.1081C2.16314 8.8542 3.78556 5.52696 5.71947 5.52696C6.76689 5.52696 7.64201 6.1318 8.98267 8.05109C7.70968 10.0036 6.93858 11.2283 6.93858 11.2283ZM13.3384 10.8936L12.1658 8.93793C11.8484 8.42177 11.5434 7.9467 11.2509 7.5127C12.3077 5.88146 13.1795 5.06868 14.2164 5.06868C16.3703 5.06868 18.0935 8.24018 18.0935 12.1357C18.0935 13.6206 17.6072 14.4822 16.5995 14.4822C15.6337 14.4822 15.1722 13.8442 13.3384 10.8936Z" fill="#505451"/>
</g>
<defs>
<clipPath id="clip0_0_93">
<rect width="20" height="20" fill="white"/>
</clipPath>
</defs>
</svg>
